<svg xmlns="http://www.w3.org/2000/svg" width="403.85" viewBox="0 0 403.84512 77.881248"><g transform="matrix(1.25 0 0-1.25-48.08 163.94)"><g fill="#1c1c1c"><path d="m0 0v37.2h5.101v-36.502c0-14.4 7.8-21.1 18.4-21.1 10.601 0 18.502 6.701 18.502 21.1v36.502h5.1v-37.2c0-16.9-10.4-25.1-23.602-25.1-13.2 0-23.501 8.202-23.501 25.1" transform="translate(90.77 93.95)"/><path d="m0 0h5v-7.1c2.7 4.201 7.901 8 14.201 8 10.1 0 15.401-6.5 15.401-15.901v-29.402h-4.9v28.703c0 6.9-3.5 12-11.401 12-6.1 0-11.1-4.3-13.301-9.601v-31.1h-5v44.4" transform="translate(149.28 114.15)"/><path d="m199.91 69.75h-5v44.4h5v-44.4m-2.5 54.5c-1.9 0-3.4 1.501-3.4 3.401 0 1.801 1.5 3.4 3.4 3.4 1.9 0 3.401-1.599 3.401-3.4 0-1.9-1.501-3.401-3.401-3.401"/><path d="m0 0h-7.501v4.3h7.501v11.401h4.9v-11.401h11.5v-4.3h-11.5v-29.3c0-5 2.2-7.199 6.4-7.199 2.201 0 4.4.699 6.1 1.699v-4.701c-1.7-.899-4.2-1.5-6.6-1.5-6.5 0-10.8 3.601-10.8 11.201v29.802" transform="translate(213.83 109.85)"/><path d="m0 0c2.101 0 3.8-1.699 3.8-3.9 0-2.1-1.699-3.799-3.8-3.799-2 0-3.7 1.699-3.7 3.799 0 2.201 1.7 3.9 3.7 3.9" transform="translate(240.37 77.15)"/><path d="m0 0h5v-7.1c2.7 4.201 7.9 8 14.201 8 10.1 0 15.401-6.5 15.401-15.901v-29.402h-4.901v28.703c0 6.9-3.5 12-11.4 12-6.1 0-11.1-4.3-13.301-9.601v-31.1h-5v44.4" transform="translate(253.19 114.15)"/><path d="m0 0h27.502c-.301 7.801-4.201 15.202-13 15.202-8 0-13.501-5.901-14.501-15.202m31.803-12.801c-1.701-8.199-7.902-13.801-17.201-13.801-11.702 0-19.702 9.301-19.702 23.1 0 13.202 7.5 23.1 19.601 23.1 11.801 0 18-9.101 18-21.702v-1.798h-32.701c.099-11.301 6.199-18.303 14.801-18.303 6.299 0 11 3.5 12.4 9.4h4.801z" transform="translate(301.41 95.45)"/><path d="m0 0h-7.5v4.3h7.5v11.401h4.9v-11.401h11.502v-4.3h-11.502v-29.3c0-5 2.202-7.199 6.401-7.199 2.201 0 4.4.699 6.101 1.699v-4.701c-1.701-.899-4.201-1.5-6.601-1.5-6.5 0-10.801 3.601-10.801 11.201v29.802" transform="translate(344.14 109.85)"/></g><path d="m0 0l-1.259-1.26-15.09 15.09-15.09-15.09-1.258 1.26 15.09 15.09-15.09 15.09 1.258 1.259 15.09-15.09 15.09 15.09 1.259-1.259-15.09-15.09 15.09-15.09m6.154 28.833l-8.752 8.753-13.748-13.749-13.747 13.749-8.753-8.753 13.748-13.747-13.748-13.748 8.753-8.752 13.747 13.748 13.748-13.748 8.752 8.752-13.747 13.748 13.747 13.747" transform="translate(77.31 76.8)"/></g></svg>